<svg id="Camada_1" data-name="Camada 1" xmlns="http://www.w3.org/2000/svg" viewBox="0 0 543.18 546.74"><defs><style>.cls-1{fill:#fff;}.cls-2{fill:#0d0f0c;}.cls-3{fill:#101e0c;}.cls-4{fill:#0a131a;}.cls-5{fill:#992c2c;}.cls-6{fill:#f5fbfc;}.cls-7{fill:#f5f5f5;}.cls-8{fill:#27110c;}.cls-9{fill:#3c88af;}.cls-10{fill:#598638;}.cls-11{fill:#131812;}.cls-12{fill:#9b6550;}.cls-13{fill:#151709;}.cls-14{fill:#101820;}.cls-15{fill:#338cba;}.cls-16{fill:#f9f9f9;}.cls-17{fill:#c62223;}.cls-18{fill:#7c4f21;}.cls-19{fill:#5b8a38;}.cls-20{fill:#11140e;}.cls-21{fill:#442d10;}.cls-22{fill:#070807;}.cls-23{fill:#3d0505;}.cls-24{fill:#0942ea;}.cls-25{fill:#f7f7f7;}</style></defs><g id="_6JzA7m.tif" data-name="6JzA7m.tif"><path class="cls-1" d="M380.93,238.78c10.18-10.86,19.68-22.48,30.72-32.37,12-10.77,25.31-20.14,38.3-29.77,14.95-11.08,32.08-18.2,49.12-25.2,9.38-3.86,19.51-5.91,29.27-8.85,24-7.22,48.76-9.37,73.63-9.18a255.53,255.53,0,0,1,40.92,3.85,282.25,282.25,0,0,1,40,9.93c33.07,10.84,63.46,27.1,89.53,50.17,15.07,13.34,28.23,28.85,42.24,43.38-1.58.67-3.17,1.91-4.76,1.92-13.92.15-27.85.11-41.77,0a6.85,6.85,0,0,1-4-1c-4.6-3.84-9-7.92-13.49-11.91a15.52,15.52,0,0,0-2.09-3.11c-21.51-19.72-47-30.26-76-31.61-16.1-.75-32.27.18-48.41-.09-27.19-.46-51.85,7.61-74.93,21.4-5.11,3.18-6,8.77-6.79,13.82-.8,5.32-3.46,6.71-8.07,8.71-10.71,4.64-21.65,3.86-32.67,3.87q-57.67,0-115.35,0h-5.35Z" transform="translate(-325.61 -133.39)"/><path class="cls-1" d="M526.14,370.42c-1.19,4.12-2.37,8.24-3.61,12.52H325.81c-1.52-8.43,6-48.87,14.17-66.6H519.07c.22.71.44,1.41.65,2.12-1.66,1.15-4.16,2-4.74,3.53s.56,4,1.16,5.93c.07.2,1.59,0,2.43-.07l.19,1.5,2.06,1.58v0l.81,1.43,1.3.52,9,2.24,2.26,4.46-4.35,15Q528,362.53,526.14,370.42Z" transform="translate(-325.61 -133.39)"/><path class="cls-1" d="M470.1,526.32c-2-.17-3.93-.48-5.9-.48q-53.88-.06-107.76,0c-3.88,0-6.09-.94-7.58-5.09-4-11.23-9.15-22.07-13.07-33.34-2.77-7.94-4.41-16.29-6.33-24.52-1.17-5-.19-6,5.14-6q77.32,0,154.66,0a57.72,57.72,0,0,0,5.84-.58l1,1.18c-.09,1.29-.17,2.57-.26,3.86-1.89,3.18-4.38,6.15-5.58,9.57-5.88,16.8-11.37,33.72-17.12,50.56C472.52,523.22,471.12,524.71,470.1,526.32Z" transform="translate(-325.61 -133.39)"/><path class="cls-1" d="M793.68,592.13c0,1.39.6,3.36-.09,4.08a271.84,271.84,0,0,1-39.87,34.36,283.21,283.21,0,0,1-52.27,28.85c-10.69,4.53-22,7.62-33.21,10.87a239.83,239.83,0,0,1-79.14,9.56A307.92,307.92,0,0,1,544,674.22c-15.08-3-29.89-7.62-44.6-12.23-7.1-2.23-13.68-6.1-20.54-9.12a16.08,16.08,0,0,0-3.79-.68,16.28,16.28,0,0,1,2.5-.83q13.23-2.1,26.48-4.13c13.58-1.83,27.19-3.5,40.74-5.54,10.75-1.62,21.44-3.69,32.15-5.56,1.61.65,3.63.88,4.76,2,6.31,6.36,14,7.44,22,5.26,10.26-2.79,20.32-6.3,30.47-9.5l1.66-.33,6.17-1,1.82-.36,1-.14c21.94-3.39,43.88-6.84,65.83-10.16,28.65-4.33,55.56-13.42,80.21-28.86A11.85,11.85,0,0,1,793.68,592.13Z" transform="translate(-325.61 -133.39)"/><path class="cls-2" d="M504.08,647.23q-13.24,2.06-26.48,4.13a16.28,16.28,0,0,0-2.5.83l-12.94-7.05c.47-1.06,1.55-2.42,1.23-3.15-.55-1.23-1.92-2.8-3.07-2.92-2.42-.24-4.92.38-7.39.64-5,.24-10.08.68-15.12.62-2.36,0-5.21-.34-7-1.67-8.49-6.29-17.12-12.53-24.85-19.7-4.84-4.49-8.49-10.41-12.1-16.05-3-4.76-2.27-10.22-.73-15.4.37-1.25,1.69-2.29,2.73-3.25,2.08-1.91,4.8-3.34,6.31-5.59,6.19-9.22,10.94-10,18.36-3.39l12.8-8.92c7.52,1.87,10,8,12,14.81a31.26,31.26,0,0,1,3.45-2.69c7-4.05,10.95-9.45,8.26-17.94-.22-7.63,4.47-13.09,8-19.25,2.56-4.5,3.48-9.94,5.13-15,1-1.61,2.42-3.1,3-4.87,5.75-16.84,11.24-33.76,17.12-50.56,1.2-3.42,3.69-6.39,5.58-9.57,1.08,1.81,2.62,3.49,3.16,5.45,1.34,4.8,2.22,9.72,3.29,14.59a.6.6,0,0,1,0,.63l.84,4.44a1.89,1.89,0,0,1,0,.75l1,1.24a.38.38,0,0,1,.18.51l-1.6,1.65-6.37-23.73a56.28,56.28,0,0,0-2.35,5.54c-1.13,3.82-2,7.72-3.14,11.54-3.23,10.81-6.54,21.59-9.82,32.38l0,0-.34.82L480,520l-1,3.27.06-.08-14,29H465c-2.64,3.23-4.19,6.69-2.65,11.53l3.83-2.25,1.95-.31L490,558.25l6.1-.19,4.9.16,2,.21c12.45,1.79,23.78,8.63,36.69,9-4.06-16,1.52-30,5.27-44.21a108.75,108.75,0,0,1,20.09-39.51c-3.31.92-8.4-2.89-9,3.72l-1.92-1c-.18-1.26-.35-2.52-.57-4.06,6.16-2.07,13.83.47,18.44-5.95l1.89-2.12h0l4.31.19c-7.21,10.45-15.93,20.21-21.23,31.55-5.84,12.49-9.25,26.27-12.38,39.8-2.56,11-2.23,21.87,8.42,30.1,11.44,8.84,17.8,21,20.62,35.33,1.11,5.57,3.86,10.94,6.51,16.07,5.87,11.34,16.64,15.07,29.23,10.37-.61-1.15-1.21-2.26-1.81-3.37l3.62-.23.83,1,1.12,1.07,3.82,0,2.08-.83.14,0,2.81-.93,1.51-.36,1.45-.68,1.46-.3,1.58-.72.17,0a6.08,6.08,0,0,0,.95-.16l1.23-.33,3.94,2.1c-10.15,3.2-20.21,6.71-30.47,9.5-8.06,2.18-15.71,1.1-22-5.26-1.13-1.14-3.15-1.37-4.76-2-.18-1.65-.35-3.29-.53-4.93-.2-.57-.4-1.13-.61-1.7l-.87-1.28a.94.94,0,0,1-.17-.65l-.81-1.34c-2.33-6.71-4.89-13.35-6.91-20.14-2.41-8.07-5.41-15.65-11.9-21.43a106.47,106.47,0,0,1-8.1-8.08c-6.47-7.12-7.84-7.5-16.72-4l-2-1.18c-.43-.5-.76-1.26-1.28-1.44-13-4.42-25.79-9.23-40.13-6.65-11.18,2-22.85,2-30.47,12.45a10.08,10.08,0,0,1-3,2.58c-6.8,4-10.11,9.6-7.41,17.39,1.06,3.08,3.35,5.73,5.08,8.57l3.68,8.8,1.63-.59-4.08-10.31c-.39-4.61-1.2-9.23-1.05-13.83a8.65,8.65,0,0,1,7.11-8.55c4.22-.95,7.39.91,9.64,4.51a28.36,28.36,0,0,0,1.79,2.41c5.09-2.79,9.45-6.11,14.37-7.66,6.56-2.06,9.63,3,11.47,8.42L506.94,582l1.83,1.29c.3.56.52,1.53.9,1.6,5.29.91,6,4.71,5.36,8.93-.56,3.55-1.17,7.35-2.89,10.4-5.34,9.41-10.06,18.91-10.23,30-.1.09-.3.19-.3.27a3.55,3.55,0,0,0,.19.71c-.59,2-1.19,4-1.78,6q-1.39,2.43-2.77,4.86l1.82.12,1.77-.14Zm-34.66-53.09c0-.1-.3-1.13-.58-2.15-1.86-6.8-5.19-9.76-9.94-8.85-4.29.83-6.27,5.16-4.63,12q5.16,21.52,11,42.9c2.12,7.78,7.1,10.91,16.2,11.14,7.09.19,9.3-2,12.68-10.15,4.81-11.63,10.17-23,15.12-34.62a60.69,60.69,0,0,0,3.45-10.86c.89-4.06-1.29-7-5.36-6.19s-7.67,3.21-11.34,5.21c-1.5.81-2.58,2.38-3.86,3.61a5.54,5.54,0,0,1-.19-3.5c.55-3.79,1.51-8-2.27-10.49s-7.65-.89-10.6,1.69C475.54,587,472.59,590.73,469.42,594.14Zm-65.3-6.74c-3.33.26-7.19-.4-8,.84-1.46,2.36-1.32,5.81-1.48,8.82-.06,1.21.79,2.51,1.36,3.71,6.41,13.25,17.17,22.16,29.65,29.22,7.87,4.44,11.72,3,14.65-5.69,5.52-16.31,3.33-32.82.35-49.19-.36-2-3.49-4.26-5.8-5.05-4.08-1.39-8.74,2.24-10.27,7.2-.59,1.91-1.07,3.84-1.84,6.67-3.55-5.11-5.15-11.4-12-10C402.84,575.45,404.37,582.32,404.12,587.4Zm38,42.56c6.85.54,8-.12,9.12-6.74a28.57,28.57,0,0,0,.44-9.82c-.61-3.37-2.48-6.5-3.83-9.81C445.85,612.9,444,621.31,442.15,630Zm7.7,7c2.82-.33,5.66-.36,8.31-1.1,1.16-.32,2.89-2.28,2.71-3.14-1.28-6.07-3-12-4.86-19.24C453.77,622,451.87,629.21,449.85,636.92Z" transform="translate(-325.61 -133.39)"/><path class="cls-1" d="M856.6,318.63c1.47,6.14,2.94,12.3,4.43,18.44,1.8,7.43,4,14.79,5.33,22.29,1.24,6.77,1.61,13.7,2.38,20.56.36,3.22-1,4.28-4.28,4.26-10.93-.1-21.87.11-32.8.2-1.86-7.84-3.38-15.78-5.65-23.5-4.37-14.84-9.17-29.55-13.91-44.68,12.46,0,25-.12,37.6.11C852,316.35,854.3,317.82,856.6,318.63Z" transform="translate(-325.61 -133.39)"/><path class="cls-3" d="M534.3,238.86c4.61-2,7.27-3.39,8.07-8.71.76-5.05,1.68-10.64,6.79-13.82l3.94.46c-8.71,4.24-7.48,12.61-9.12,21.36l76.14,7.36c3.15-5.32,5.59-9.75,8.34-14,2.6-4,5.52-7.83,8.31-11.73l3.22,1c-5.2,7.66-13,13.69-15.26,23.92,3,0,5.47.19,7.9,0,11-1,22.1-2.07,33.13-3.3a85.45,85.45,0,0,1,42,6,9.56,9.56,0,0,1,2.27,1.9l-.57,1.14a43.35,43.35,0,0,1-4.4-1.23,80,80,0,0,0-35.68-5.33c-14.36,1.17-28.71,2.6-43.05,4.06a6.93,6.93,0,0,0-3.81,2,112.3,112.3,0,0,0-7.64,8.53,53.26,53.26,0,0,0-3.63,6.12,44.15,44.15,0,0,0,5.68,0c11-1.78,21.9-3.76,32.89-5.44,12.43-1.89,24.63-1.95,36.82,2.56,7.17,2.66,15.07,3.34,22.65,4.9,1.4.28,2.8.5,4.2.75l.22,1.57c-9.62.19-15.33,6.45-21.2,12.55-.62.64-2.16.39-3.28.55l13-13c-4.23-1-8.48-1.09-11.9-2.84-13-6.6-26.57-6.59-40.36-4.37q-18.87,3-37.57,7.08c-2.19.47-4.63,3.13-5.57,5.36-2.74,6.48.67,14.51,7.8,20.06l-5.93,1.3c4.4,4.91,8.37,10.05,15.14,11.23C642.48,310,661.25,308.88,680,308c1.44-.07,2.88,0,4.32,0l.17,1.52c-2.48.62-5,1.75-7.43,1.77-13.14.12-26.28,0-39.42-.11-11.53-.12-22.07-2.68-29.86-12.22-.62-.77-3.51-.65-4.63.11-11.71,8-24.63,9.3-38.2,7.48l0-1.94c5.31,0,10.64.14,15.94-.18,10.71-.65,19.37-5.93,27.73-12.41l-6.37-12.14c-12,2.33-23.31.49-34.5-3.44-5.6-2-11.4-4.27-17.21-4.6-11.41-.66-22.89-.17-34.34.07-5.12.11-9.36,1.9-11.17,7.42-1.88,5.79,0,10.43,4,14.49,1.78,1.8,3.78,3.39,5.67,5.07l-7.36-1.42-1,.8c2.92,2.83,5.36,6.75,8.85,8.3,13.94,6.2,28.24,11.18,43.53,3.69l.69,1.13-10.83,8.83c-.15-.56-.31-1.12-.46-1.68-1.34-.63-2.62-1.58-4-1.83-5.37-1-10.79-1.69-16.17-2.61-2.21-.38-4.37-1-7.46-1.8C522,315,523,316.82,524,318.62l-4.31-.16c-.21-.71-.43-1.41-.65-2.12-3.23-3.91-6.19-8.08-9.77-11.64-2.55-2.53-6.21-4-4.44-8.72.38-1-.53-2.52-.91-3.77-1.77-5.85-4.13-11.71.61-17.33a.74.74,0,0,0,.12-.47c-.42-11.87,7.33-19.37,14.47-27.21a9.64,9.64,0,0,0,.91-2.1m98.65,3.62a9.1,9.1,0,0,0-2.17-.63c-11-1.18-22.11-2.28-33.16-3.45-11.53-1.23-23.14-2-34.55-3.9-16.31-2.75-29.09,5.81-35.93,19.62,31-2.72,60.9,1.49,88.11,14.92Zm-22.29,30,.31-1.68a14.7,14.7,0,0,0-3.18-2.1c-7.79-2.67-15.46-6.09-23.49-7.58-13.48-2.51-27.16-4.18-40.82-5.33-5.82-.49-11.89.94-17.7,2.15-1.64.35-2.8,3-4.18,4.61a24.23,24.23,0,0,0,4.94,1c13.9,0,27.88-1.09,41.67.08,8.88.76,17.41,5.12,26.25,7.2C585.46,278.34,591,278.26,596.42,278.76Z" transform="translate(-325.61 -133.39)"/><path class="cls-4" d="M812.1,316.2c4.74,15.13,9.54,29.84,13.91,44.68,2.27,7.72,3.79,15.66,5.65,23.5.67,8.83,3.21,17.4,2.23,26.5-.57,5.33,1.57,10.9,1.63,16.38.12,9.86-.4,19.72-.65,29.59q-.61,34.75-1.24,69.51c-1.71,7.23-2.79,14.69-5.26,21.66-5.42,15.34-15.26,27.62-28.1,37.59-2.42,1.88-4.4,4.33-6.59,6.52a11.85,11.85,0,0,0-2.77.91c-24.65,15.44-51.56,24.53-80.21,28.86-22,3.32-43.89,6.77-65.83,10.16l-1,.14-1.82.36c-2.39-1.66-4.69-2.84-6.17,1l-1.66.33-3.94-2.09a47.4,47.4,0,0,1,5.73-1.59c12.32-1.83,24.7-3.35,37-5.37,13.6-2.24,27.09-5.25,40.72-7.29,25.8-3.87,50-12,72.24-25.73,32.26-20,46.64-49.19,44.21-87a173.67,173.67,0,0,1,.2-25.4c2.4-28.6,2.84-57.29-1.21-85.62a307.82,307.82,0,0,0-38.73-112.44c-6.39-10.92-15-20.62-23-30.46-6-7.3-12.82-13.92-19.27-20.84l2.5-.34c4.48,4,8.89,8.07,13.49,11.91a6.85,6.85,0,0,0,4,1" transform="translate(-325.61 -133.39)"/><path class="cls-4" d="M766.91,244.75c1.32,2.1,1.72,3.45,2.63,4.09,11.22,7.82,17.86,19.35,24.27,30.82,5.83,10.43,10.31,21.62,15.75,32.3" transform="translate(-325.61 -133.39)"/><path class="cls-1" d="M833.63,526.36q.61-34.75,1.24-69.51c8.63,0,17.26.11,25.88-.06,3.37-.07,4.65,1.2,4,4.4-1.46,6.88-2.5,13.91-4.62,20.59-3.42,10.79-7.52,21.37-11.45,32a44.34,44.34,0,0,1-4.24,9.06c-1,1.46-3.13,2.39-4.94,3S835.59,526.2,833.63,526.36Z" transform="translate(-325.61 -133.39)"/><path class="cls-5" d="M517.51,391.69c8.64,1.59,17.25,1.06,25.86-.26l5.14.22a32.14,32.14,0,0,0,4.9,2.69c4.67,1.6,9.53,2.72,14.13,4.49,3.69,1.41,6.56,3.92,6.35,8.49l-1.29,2.05a.88.88,0,0,0-.49.22c-3.62,1.62-7.1,3.71-10.87,4.78-22.22,6.3-44.19,6.23-65.67-3.2a1,1,0,0,0-.41-.6l-1.06-1.19c-3.38-4.31-3.23-7.89,1.37-10.23,4.2-2.15,9-3.17,13.5-4.67Zm-2.34,7.89c.92-.71,1.83-1.43,2.74-2.15-.16-.52-.33-1.05-.5-1.57-5.68,1.24-11.44,2.19-17,3.86-2.07.63-3.64,2.93-5.44,4.46l5,5.52c5,3.4,10.54,3.89,16.41,3.91,10.58,0,21.19,1.19,31.73.7,6.06-.29,12-2.91,18-4.48,4.78-3.06,4.78-6.32-.58-8.68-4.58-2-9.61-3-14.44-4.49L541,398.57c-1.52,1-5.24-3.79-5,1.9l-12.47,1.33L521.9,408l-3.74-5.68Zm19.67-3-.09-1.09H522.38l.08,1.09Z" transform="translate(-325.61 -133.39)"/><path class="cls-6" d="M527.74,377.35l.15-4,1.77-5.6,8.46-6.43,1.28-.6a.44.44,0,0,0,.62-.36l3,.08,7.87,2.48,5.57,8.31a9.25,9.25,0,0,0-.23,1.94c.71,8.34-3,13.89-10.42,15.48-7.85,1.69-13.88-1.59-16.89-9.17A18.1,18.1,0,0,0,527.74,377.35Z" transform="translate(-325.61 -133.39)"/><path class="cls-7" d="M457,560.54c2.69,8.49-1.26,13.89-8.26,17.94a31.26,31.26,0,0,0-3.45,2.69c-2-6.79-4.44-12.94-12-14.81,2.07-1.55,4.16-3.06,6.19-4.65C445.09,557.36,451,558.16,457,560.54Z" transform="translate(-325.61 -133.39)"/><path class="cls-8" d="M495.16,410.57a1,1,0,0,1,.41.6l-1.46,1.23c-.82.48-2.4,1.08-2.34,1.43,1.54,9.91,3.36,19.79,4.91,29.71,2,12.59,3.73,25.21,5.59,37.82-1.07-4.87-1.95-9.79-3.29-14.59-.54-2-2.08-3.64-3.16-5.45.09-1.29.17-2.57.26-3.86-.19-1.6-.37-3.21-.55-4.81q-3.21-22.56-6.41-45.12c-.63-4.49,1.22-7.83,5-10,7.22-4.09,15.11-5.72,23.35-5.84L509,394.48c-4.52,1.5-9.3,2.52-13.5,4.67-4.6,2.34-4.75,5.92-1.37,10.24C494.45,409.78,494.8,410.18,495.16,410.57Z" transform="translate(-325.61 -133.39)"/><path class="cls-9" d="M527.74,377.35a18.1,18.1,0,0,1,1.16,2.11c3,7.58,9,10.86,16.89,9.17,7.42-1.59,11.13-7.14,10.42-15.48a9.25,9.25,0,0,1,.23-1.94l3.78,5.07c-2.92,4.36-5.86,8.7-8.72,13.09-.18.29.19.93.3,1.41l-3.3.87-5.13-.22c-5.06-.54-10.11-1.12-15.17-1.59a42.09,42.09,0,0,0-5.17.33Z" transform="translate(-325.61 -133.39)"/><path class="cls-7" d="M452.93,639.71c2.47-.26,5-.88,7.39-.64,1.15.12,2.52,1.69,3.07,2.92.32.73-.76,2.09-1.23,3.15Z" transform="translate(-325.61 -133.39)"/><path class="cls-10" d="M529.66,367.74l-1.77,5.59c-.58-1-1.16-1.94-1.75-2.91l3.72-15.79,1.86,0Q530.68,361.2,529.66,367.74Z" transform="translate(-325.61 -133.39)"/><path class="cls-2" d="M495.53,452.65c.18,1.6.36,3.21.55,4.81l-1-1.18Z" transform="translate(-325.61 -133.39)"/><path class="cls-11" d="M750.61,229.74l-2.5.34-.33-.28-1-.86c-1.88-2.39-3.72-4.86-7.1-2.07-9.36-13.06-23-19-37.9-22.87-8.07-1.77-16.09-4.75-24.21-5.06-19.56-.75-39.17-.13-58.76-.29-14.15-.12-27.7,2.72-41,7.42a19,19,0,0,0-2.62,1.42,76.17,76.17,0,0,0,16.06-.11c15.71-1.68,30.88-.63,44.63,8.17,2.28,1.46,3.65.82,5.5-.94,3.1-2.94,6.25-6.33,10-7.92,16.52-6.89,33.38-8.08,50.3-1.05,3.18,2.37,6.52,4.57,9.53,7.14,21.75,18.52,28.25,44,29.2,70.59a92.27,92.27,0,0,1-17.16,57.29c-4.28,6.06-7.27,13-11,19.49-2.56,4.45-5.21,8.87-8.07,13.13-10.94,16.25-28.47,22.75-45.22,30.4l-5.16-1.44-2.05-.14-4-2.7a29.69,29.69,0,0,1,4.39-.38c8.15.53,24-5.69,30-11.82l-9-1.7c2.92-.4,5.88-1.33,8.75-1.1,6.43.53,10.82-2.79,14.43-7.24a134.14,134.14,0,0,0,10.65-15c5.42-8.93,10-18.4,15.69-27.15,7.06-10.87,10.85-22.85,12.74-35.34a119.79,119.79,0,0,0,.81-26.16c-.48-6.87-2.93-13.6-4.41-20.41-3.51-16.1-12.41-28.84-24.72-39.36-16.07-13.73-48-12.1-62.78,3-1.39,1.42-2.94,2.67-4.42,4l-3.22-1c-6.54-2.69-12.88-6.89-19.66-7.77-20.71-2.71-41.45-2.06-61.74,3.83l-1.33.75a2.32,2.32,0,0,1-.94.19l-3.94-.46c23.08-13.79,47.74-21.86,74.93-21.4,16.14.27,32.31-.66,48.41.09,29,1.35,54.51,11.89,76,31.61A15.52,15.52,0,0,1,750.61,229.74Z" transform="translate(-325.61 -133.39)"/><path class="cls-12" d="M518.76,329.35c-.07-.5-.13-1-.19-1.5l-.93-6c2.05-.17,4.09-.46,6.13-.46a9.34,9.34,0,0,1,2.84.89,48.41,48.41,0,0,0,23.56,2,23.65,23.65,0,0,1,9.81.4c11.34,3.16,22.68,6.43,33.79,10.32,12,4.19,23.87,8.52,36.71,8.27,8.95-.18,17.92-.94,26.82-2,12.26-1.41,23.12-5.23,27.17-18.74a14.49,14.49,0,0,1,1.28-2.7c2.16-3.95,7.47-6.39,11.39-5,4.25,1.55,5.38,5.21,5.23,9.27a22.16,22.16,0,0,1-10.13,17.9A121.26,121.26,0,0,1,668,354.41c-16.27,6.12-33.41,6.38-50.63,6.26-18.42-.13-34.87-4.83-49.56-16.24-3.57-2.77-8.8-3.4-13.26-5l-4,0a.34.34,0,0,0-.52-.08l-2,.22-4,.08-7.13-.32L536,339c-.35-1.55-.69-3.1-1.29-5.79,7.88.34,15.22-.45,22,1.2,14.63,3.56,29.12,7.91,43.38,12.76,20.92,7.12,41.74,10.84,63.23,2.55a93.69,93.69,0,0,1,12-3.26c10.2-2.41,18.07-7.48,20.67-18.32.56-2.3.08-4.85.08-7.29h-1.71a17.15,17.15,0,0,0-.41,2.21c-.48,9.27-5.6,16.38-14.44,19.21-8.38,2.68-16.85,5.15-25.38,7.29a82.34,82.34,0,0,1-14.18,2.08c-20.76,1.45-39.42-7-58.33-13.41-13.89-4.71-27.7-8-42.35-7.48q-7.92.25-15.85.55l-.14,0L522,330.5l-1.23.47v0Z" transform="translate(-325.61 -133.39)"/><path class="cls-13" d="M554.53,339.41c4.46,1.62,9.69,2.25,13.26,5,14.69,11.41,31.14,16.11,49.56,16.24,17.22.12,34.36-.14,50.63-6.26a121.26,121.26,0,0,0,24.26-12.29,22.16,22.16,0,0,0,10.13-17.9c.15-4.06-1-7.72-5.23-9.27-3.92-1.42-9.23,1-11.39,5a14.49,14.49,0,0,0-1.28,2.7c-4.05,13.51-14.91,17.33-27.17,18.74-8.9,1-17.87,1.78-26.82,2-12.84.25-24.75-4.08-36.71-8.27-11.11-3.89-22.45-7.16-33.79-10.32a23.65,23.65,0,0,0-9.81-.4,48.41,48.41,0,0,1-23.56-2,9.34,9.34,0,0,0-2.84-.89c-2,0-4.08.29-6.13.46l.93,6c-.84,0-2.36.27-2.43.07-.6-2-1.77-4.3-1.16-5.93s3.08-2.38,4.74-3.53l4.31.16c8.53,3.07,17,4.53,26.33,3.18,11.89-1.72,22.74,3.9,33.82,7.18,8.43,2.51,16.63,5.76,25,8.52,16.86,5.58,33.94,2.3,50.88.74,9.82-.9,18.3-4.92,21.57-15.59a27,27,0,0,1,2.1-4.5c2.65-5,8.33-7.31,14.62-5.49,4.89,1.42,6.24,5.43,6.55,10.09.64,9.48-3.89,16.7-11.19,21.53a120.77,120.77,0,0,1-23.87,12.21c-18.69,7-38.36,7.67-58.05,6.73-16.45-.79-31.46-5.82-44.71-16-3.7-2.85-8.47-4.28-12.75-6.37,3,9.34,7.88,16.39,15.72,20.85,24.71,14.06,51,22.34,79.73,22.23,6.91,0,13.81,1,20.72,1.59-10.38.19-20.79,1-31.12.37-10.94-.7-21.8-2.84-32.55-4.33,2.87,4.34,4.22,10.69,11.25,11.84l-8.38,1.25c-.55-1.19-1.07-2.39-1.65-3.56-3.56-7.17-7.58-13.16-16-16.31A130.74,130.74,0,0,1,564,360c-5-3.45-8.13-9.72-12.1-14.73l-2-4.68c0-.42.05-.83.08-1.24a.35.35,0,0,1,.53.08Z" transform="translate(-325.61 -133.39)"/><path class="cls-8" d="M523.35,331.3q7.93-.29,15.85-.55c14.65-.48,28.46,2.77,42.35,7.48,18.91,6.41,37.57,14.86,58.33,13.41a82.34,82.34,0,0,0,14.18-2.08c8.53-2.14,17-4.61,25.38-7.29,8.84-2.83,14-9.94,14.44-19.21a17.15,17.15,0,0,1,.41-2.21H696c0,2.44.48,5-.08,7.29-2.6,10.84-10.47,15.91-20.67,18.32a93.69,93.69,0,0,0-12,3.26c-21.49,8.29-42.31,4.57-63.23-2.55-14.26-4.85-28.75-9.2-43.38-12.76-6.75-1.65-14.09-.86-22-1.2.6,2.69.94,4.24,1.28,5.79l-1.74.61-2.26-4.46-9-2.24C523.06,332.38,523.21,331.84,523.35,331.3Z" transform="translate(-325.61 -133.39)"/><path class="cls-14" d="M534.2,339.62l1.74-.61.94.34,7.11,1.22,4,0,1.85.06q1,2.34,2.05,4.68c-1.14,6.51.57,12.31,4.13,17.78,6.82,10.48,13.52,21,20.26,31.58l-.54,5.27c-.29-.14-.57-.29-.85-.45l.06.08-4.91-8.32-2-2.74-6.05-9h0l-1.87-3.12.06-.1-3.78-5.07-5.57-8.31c-1.27-6.72-2.55-13.43-3.87-20.44-8.85-2.23-10.78-1.24-13.71,7.49q-.79,2.35-1.57,4.71l-1.86,0Q532,347.13,534.2,339.62Z" transform="translate(-325.61 -133.39)"/><path class="cls-13" d="M518.76,329.35l2,1.58Z" transform="translate(-325.61 -133.39)"/><path class="cls-13" d="M520.81,331l1.23-.47v1.1a4.07,4.07,0,0,0-.42.8Z" transform="translate(-325.61 -133.39)"/><path class="cls-13" d="M523.35,331.3c-.14.54-.29,1.08-.43,1.62l-1.3-.52a4.07,4.07,0,0,1,.42-.8l1.17-.27Z" transform="translate(-325.61 -133.39)"/><path class="cls-8" d="M576.44,631.2c.18,1.64.35,3.28.53,4.93-10.71,1.87-21.4,3.94-32.15,5.56-13.55,2-27.16,3.71-40.74,5.54L500.84,646a21,21,0,0,1,3.71-1.31c18.63-2.86,37.3-5.48,55.89-8.57C565.92,635.24,572.23,636.42,576.44,631.2Z" transform="translate(-325.61 -133.39)"/><path class="cls-2" d="M635.88,633.58c1.48-3.86,3.78-2.68,6.17-1Z" transform="translate(-325.61 -133.39)"/><path class="cls-2" d="M643.87,632.2l1-.14Z" transform="translate(-325.61 -133.39)"/><path class="cls-15" d="M747.78,229.8l.33.28c6.45,6.92,13.27,13.54,19.27,20.84,8.08,9.84,16.66,19.54,23,30.46a307.82,307.82,0,0,1,38.73,112.44c4.05,28.33,3.61,57,1.21,85.62a173.67,173.67,0,0,0-.2,25.4c2.43,37.81-11.95,67-44.21,87-22.19,13.77-46.44,21.86-72.24,25.73-13.63,2-27.12,5-40.72,7.29-12.29,2-24.67,3.54-37,5.37a47.4,47.4,0,0,0-5.73,1.59l-1.23.32-.95.16-.17,0-1.58.72-1.46.3-1.45.68-1.51.36-2.81.93-.14,0-2.08.83-3.82,0L612,635.09l-.83-1c-4-5.86-9.85-11.22-11.57-17.68-6.54-24.71-12.74-49.59-17.13-74.75C579,522,586,504.58,600.87,490.94c16.55-15.15,32.88-30.58,50.17-44.84,13.67-11.27,27.81-22.51,43.27-31,20.87-11.4,36.28-26.74,46.86-47.86,15.49-30.93,23.11-63.24,19.33-97.87-.45-4.09-.73-8.4-2.25-12.14-3.3-8.15-7.41-16-11-24-.56-1.24-.31-2.85-.43-4.28ZM725.44,526c-.11-8.5-6.75-14.83-15.49-14.78A14.69,14.69,0,0,0,695.06,526a15.11,15.11,0,0,0,15.17,15.23A15.27,15.27,0,0,0,725.44,526Zm-93.63,51.23a15,15,0,1,0,14.85-14.93A15,15,0,0,0,631.81,577.18Zm158-13.22a14.89,14.89,0,1,0-14.89,14.84A14.74,14.74,0,0,0,789.78,564Zm-2.35-61.65c8.26,0,14.15-5.89,14.17-14.13a14,14,0,0,0-14.19-14.26,14.12,14.12,0,0,0-14.26,14.27A13.87,13.87,0,0,0,787.43,502.31Zm-127.71-7.79c.08-7.18-6.25-13.66-13.56-13.89A13.92,13.92,0,0,0,632,494.32a13.6,13.6,0,0,0,13.67,14A14.09,14.09,0,0,0,659.72,494.52Zm106-174a14,14,0,0,0,14.07,13.79c7.29-.14,13.72-6.6,13.71-13.75a14.21,14.21,0,0,0-14-14A13.73,13.73,0,0,0,765.75,320.48Zm-46,137.23c.06-8-5.87-14.12-13.6-14.14-7.29,0-13.82,6.36-13.91,13.57-.09,7.55,6.43,14.22,13.85,14.17A13.68,13.68,0,0,0,719.8,457.71Zm81.39-74.38a13.49,13.49,0,0,0-13.9,13.27,13.72,13.72,0,1,0,27.43.29A13.18,13.18,0,0,0,801.19,383.33Zm-63.92,18.81A13.68,13.68,0,1,0,751,388.62,13.79,13.79,0,0,0,737.27,402.14Z" transform="translate(-325.61 -133.39)"/><path class="cls-16" d="M701.81,204c14.89,3.87,28.54,9.81,37.9,22.87,2.48,4.88,5.13,9.69,7.41,14.66,3.18,6.92,7.76,13.72,8.82,21,4.75,32.52.66,64-14,93.74-8.76,17.8-17,36-35.16,46.65-3.15,1.84-6.16,3.92-9.26,5.84-8.2,5.07-17.14,9.23-24.49,15.31-24.19,20.05-47.79,40.81-71.64,61.26-18,15.4-26.23,35.07-22.37,58.24,3.9,23.4,9.89,46.45,15.18,69.61,1.95,8.5,6.88,15.37,13.31,21.18.6,1.11,1.2,2.22,1.81,3.37-12.59,4.7-23.36,1-29.23-10.37-2.65-5.13-5.4-10.5-6.51-16.07C570.76,597,564.4,584.79,553,576c-10.65-8.23-11-19.07-8.42-30.1,3.13-13.53,6.54-27.31,12.38-39.8,5.3-11.34,14-21.1,21.23-31.55a14.73,14.73,0,0,0,2.36-1.63q21.29-22,42.53-44.09l2-1.77,2.93-2.38,27.59-17.8,2.73-1.71.22-.21.59-1.24h0c16.75-7.65,34.28-14.15,45.22-30.4,2.86-4.26,5.51-8.68,8.07-13.13,3.72-6.47,6.71-13.43,11-19.49a92.27,92.27,0,0,0,17.16-57.29c-.95-26.58-7.45-52.07-29.2-70.59-3-2.57-6.35-4.77-9.53-7.14Z" transform="translate(-325.61 -133.39)"/><path class="cls-17" d="M502.27,481.36c-1.86-12.61-3.62-25.23-5.59-37.82-1.55-9.92-3.37-19.8-4.91-29.71-.06-.35,1.52-.95,2.34-1.43,2.06,1.29,4,3.06,6.21,3.8,24.25,8,48.17,7.15,71.68-3,0,.45.07.91.11,1.36l1.8,4.14,8,2.84c4.34,2.71,8.76,5.29,12.94,8.22.9.63,1,2.49,1.4,3.78-1.38.26-2.92,1-4.13.7-5.86-1.66-11.6-3.74-17.45-5.42-2.67-.76-5.62-1.6-6.7,2.61-3.25,12.64-6.64,25.24-10.3,39.06,3.77-.86,7.27-1.9,10.85-2.38,2-.27,4.08.4,6.13.64l-.82,5.58h0l-1.9,2.12c-4.61,6.42-12.28,3.88-18.44,5.95.22,1.54.39,2.8.57,4.06-1.49,2-2.67,5.37-4.51,5.78-8.17,1.8-16.49,3.47-24.82,3.8-7.38.3-15.42.42-20.43-7.08a.38.38,0,0,0-.18-.51l-1-1.24a2,2,0,0,0,0-.76l-.84-4.43A.6.6,0,0,0,502.27,481.36Z" transform="translate(-325.61 -133.39)"/><path class="cls-18" d="M576.44,631.2c-4.21,5.22-10.52,4-16,4.94-18.59,3.09-37.26,5.71-55.89,8.57a21,21,0,0,0-3.71,1.31l-1.77.14c.32-1.66.63-3.32.95-5,.59-2,1.19-4,1.78-6,0-.32.08-.65.11-1,.17-11.12,4.89-20.62,10.23-30,1.72-3,2.33-6.85,2.89-10.4.67-4.22-.07-8-5.36-8.93-.38-.07-.6-1-.89-1.6l21.57-10.69c8.88-3.48,10.25-3.1,16.72,4a106.47,106.47,0,0,0,8.1,8.08c6.49,5.78,9.49,13.36,11.9,21.43,2,6.79,4.58,13.43,6.91,20.14l.81,1.34a.94.94,0,0,0,.17.65l.87,1.28C576,630.07,576.24,630.63,576.44,631.2Z" transform="translate(-325.61 -133.39)"/><path class="cls-19" d="M469.42,594.14c3.17-3.41,6.12-7.16,9.66-10.24,2.95-2.58,7-4.07,10.6-1.69s2.82,6.7,2.27,10.49a5.54,5.54,0,0,0,.19,3.5c1.28-1.23,2.36-2.8,3.86-3.61,3.67-2,7.36-4.43,11.34-5.21s6.25,2.13,5.36,6.19a60.69,60.69,0,0,1-3.45,10.86c-4.95,11.58-10.31,23-15.12,34.62-3.38,8.2-5.59,10.34-12.68,10.15-9.1-.23-14.08-3.36-16.2-11.14q-5.83-21.36-11-42.9c-1.64-6.86.34-11.19,4.63-12,4.75-.91,8.08,2.05,9.94,8.85C469.12,593,469.39,594,469.42,594.14Z" transform="translate(-325.61 -133.39)"/><path class="cls-19" d="M404.12,587.4c.25-5.08-1.28-11.95,6.67-13.52,6.84-1.35,8.44,4.94,12,10,.77-2.83,1.25-4.76,1.84-6.67,1.53-5,6.19-8.59,10.27-7.2,2.31.79,5.44,3,5.8,5.05,3,16.37,5.17,32.88-.35,49.19-2.93,8.64-6.78,10.13-14.65,5.69-12.48-7.06-23.24-16-29.65-29.22-.57-1.2-1.42-2.5-1.36-3.71.16-3,0-6.46,1.48-8.82C396.93,587,400.79,587.66,404.12,587.4Z" transform="translate(-325.61 -133.39)"/><path class="cls-15" d="M468.11,561.16l-1.95.31c-3.75-2.67-.91-6.18-1.18-9.28h-.05c.9-.32,2.14-.36,2.64-1,6.55-8.19,10.74-17.37,11.4-28l-.06.08,1-3.27c.25-1,.5-1.91.74-2.87a1.24,1.24,0,0,0,.34-.82l0,0a22.69,22.69,0,0,0,2.09,2.28c2.31,1.91,4.69,3.74,7,5.61l0,0,3.53,2h.39c.66,4.58,3.67,4.29,6.92,3.26,2.16-.69,4.24-1.59,6.35-2.41,7.31-2.84,12-15.53,8.09-22.32-.61-1.08-2.34-1.51-3.55-2.24v0c0-3.4,2.39-3.09,4.7-3.15,1.82-.05,3.64-.4,5.46-.62l8-.07c5.2,1,10.27,1.6,15.38-1,2.06-1,4.81-.72,7.25-1l.27,1.62-4.06,2.37,1,.38q-5.77,18.9-11.56,37.79c-2.52-8.86-8-13-17-13.38-4.79-.21-10.72,2.22-12.11,6.13a1,1,0,0,1-.22.77l-.82,1.14.1,0c-4.73.88-3.28,3.94-2.39,6.8,0,1.05,0,2.09,0,3.13-.53,2.19-2.48,4.74,1.47,5.78l-.07,0c.65,1,1.3,2.08,1.94,3.12l-.07,0,1.34,1,.66,1,1.19,1,2.77,1.13c.07,2.42-.82,3-3.3,2.45-2.83-.56-5.82-.29-8.74-.39l-2-.21-4.9-.16-6.1.19c-7.19.66-14.39,1.32-21.58,2C468.32,560.29,468.22,560.85,468.11,561.16Z" transform="translate(-325.61 -133.39)"/><path class="cls-14" d="M607.51,634.35c-6.43-5.81-11.36-12.68-13.31-21.18C588.91,590,582.92,567,579,543.56c-3.86-23.17,4.4-42.84,22.37-58.24,23.85-20.45,47.45-41.21,71.64-61.26,7.35-6.08,16.29-10.24,24.49-15.31,3.1-1.92,6.11-4,9.26-5.84,18.2-10.68,26.4-28.85,35.16-46.65,14.66-29.76,18.75-61.22,14-93.74-1.06-7.27-5.64-14.07-8.82-21-2.28-5-4.93-9.78-7.41-14.66,3.38-2.79,5.22-.32,7.1,2.07l0,.07c.12,1.43-.13,3,.43,4.28,3.63,8,7.74,15.83,11,24,1.52,3.74,1.8,8.05,2.25,12.14,3.78,34.63-3.84,66.94-19.33,97.87-10.58,21.12-26,36.46-46.86,47.86-15.46,8.45-29.6,19.69-43.27,31-17.29,14.26-33.62,29.69-50.17,44.84C586,504.58,579,522,582.43,541.69c4.39,25.16,10.59,50,17.13,74.75,1.72,6.46,7.6,11.82,11.57,17.68Z" transform="translate(-325.61 -133.39)"/><path class="cls-18" d="M506.94,582l-11.26,5.52c-1.84-5.4-4.91-10.48-11.47-8.42-4.92,1.55-9.28,4.87-14.37,7.66a28.36,28.36,0,0,1-1.79-2.41c-2.25-3.6-5.42-5.46-9.64-4.51a8.65,8.65,0,0,0-7.11,8.55c-.15,4.6.66,9.22,1.05,13.83l-1.23,2.1c-1.73-2.84-4-5.49-5.08-8.57-2.7-7.79.61-13.4,7.41-17.39a10.08,10.08,0,0,0,3-2.58c7.62-10.47,19.29-10.45,30.47-12.45,14.34-2.58,27.13,2.23,40.13,6.65.52.18.85.94,1.27,1.44Z" transform="translate(-325.61 -133.39)"/><path class="cls-20" d="M573.84,474.31l.82-5.58c-2-.24-4.15-.91-6.13-.64-3.58.48-7.08,1.52-10.85,2.38,3.66-13.82,7.05-26.42,10.3-39.06,1.08-4.21,4-3.37,6.7-2.61,5.85,1.68,11.59,3.76,17.45,5.42,1.21.34,2.75-.44,4.13-.7-.44-1.29-.5-3.15-1.4-3.78-4.18-2.93-8.6-5.51-12.94-8.22,1.34-1.11,3.16-2,3.79-3.44.3-.68-1.7-2.36-2.66-3.59q-2.24-4.49-4.46-9-1.41-2.8-2.8-5.61l.54-5.27c1.88,3,4,5.93,5.6,9.09,2.61,5.07,5.79,10.11,7,15.55.66,3,1.48,5.42,4,5.35,6.69-.17,9.31,4.39,12.27,8.94a36,36,0,0,0,3.11,3.67c7.92-5.56,9.78-7.73,10.27-11.8l4.51,3.33q-21.25,22.05-42.53,44.09a14.73,14.73,0,0,1-2.36,1.63Zm26.53-42.57c-2.09,5.36-3.92,6.27-9.25,4.85-2.24-.6-4.48-1.23-6.7-1.89-6.19-1.86-6.51-1.42-5.84,4.93.2,2-.59,5-2,6-3.24,2.27-2.68,4.11-.55,6.4,2.65,2.85,2.3,4.84-1.41,6.34-1,.42-2.65,2.14-2.52,2.37a43.47,43.47,0,0,0,5.14,7.09c.45.48,2.72.1,3.41-.61,8.77-9,17.4-18.13,26.19-27.35Zm-25.09,23.49c-3.76-4.51-5.07-7.87,0-12.27,2-1.73.81-7.08,1.08-11l-3.91-1.2c-3.32,12-6.57,23.61-9.81,35.26l1.62,1.22c1.87-1.4,5.5-3.14,5.31-4.14C568.64,458.55,570.75,456.6,575.28,455.23Z" transform="translate(-325.61 -133.39)"/><path class="cls-9" d="M503,558.43c2.92.1,5.91-.17,8.74.39,2.48.5,3.37,0,3.3-2.45l7,1c.27,1.57,0,4,.92,4.53a18.56,18.56,0,0,0,7.4,2.3c2.36.21,5.91,1.41,6.49-2.5.43-2.92-.16-6-.35-10.14-2.13,1.6-3.37,2.89-4.88,3.58-2.41,1.1-4.31,4.7-7.7,1.91.76-.3,1.52-.58,2.27-.89,7.15-2.94,11-10.2,9.26-17.31-1.93-7.76-8.34-12.56-16.32-11.34-3.44.52-6.63,2.7-9.93,4.13,1.39-3.91,7.32-6.34,12.11-6.13,9,.39,14.5,4.52,17,13.38q5.78-18.9,11.56-37.79l-1-.38,4.06-2.37-.27-1.62c-2.44.29-5.19,0-7.25,1-5.11,2.56-10.18,2-15.38,1,5.49-1,11-2.22,16.48-2.77s8.85-2.82,9.52-8.46c.63-6.61,5.72-2.8,9-3.72A108.75,108.75,0,0,0,545,523.22c-3.75,14.18-9.33,28.17-5.27,44.21C526.78,567.06,515.45,560.22,503,558.43Z" transform="translate(-325.61 -133.39)"/><path class="cls-9" d="M522.05,498.74c-1.82.22-3.64.57-5.46.62-2.31.06-4.7-.25-4.7,3.15-1.14-.95-2.25-1.95-3.43-2.84-7.9-5.92-17.27-4-22,4.62-4.14,7.56-1.69,14.06,3.74,19.91-2.35-1.87-4.73-3.7-7-5.61a22.69,22.69,0,0,1-2.09-2.28c3.28-10.79,6.59-21.57,9.82-32.38,1.14-3.82,2-7.72,3.14-11.54a56.28,56.28,0,0,1,2.35-5.54l6.37,23.73c1.41,1.55,2.54,3.91,4.27,4.48C511.89,496.68,517,497.57,522.05,498.74Z" transform="translate(-325.61 -133.39)"/><path class="cls-10" d="M442.15,630c1.88-8.65,3.7-17.06,5.73-26.37,1.35,3.31,3.22,6.44,3.83,9.81a28.57,28.57,0,0,1-.44,9.82C450.13,629.84,449,630.5,442.15,630Z" transform="translate(-325.61 -133.39)"/><path class="cls-11" d="M522.05,498.74c-5-1.17-10.16-2.06-15-3.68-1.73-.57-2.86-2.93-4.27-4.48l1.6-1.65c5,7.5,13.05,7.38,20.43,7.08,8.33-.33,16.65-2,24.82-3.8,1.84-.41,3-3.78,4.51-5.78l1.92,1c-.67,5.64-4.06,7.91-9.52,8.46s-11,1.82-16.48,2.77Z" transform="translate(-325.61 -133.39)"/><path class="cls-18" d="M449.85,636.92c2-7.71,3.92-14.93,6.16-23.48,1.88,7.19,3.58,13.17,4.86,19.24.18.86-1.55,2.82-2.71,3.14C455.51,636.56,452.67,636.59,449.85,636.92Z" transform="translate(-325.61 -133.39)"/><path class="cls-8" d="M506.94,582l21.38-10.58,2,1.18-21.57,10.69Z" transform="translate(-325.61 -133.39)"/><path class="cls-9" d="M479,523.23c-.66,10.6-4.85,19.78-11.4,28-.5.63-1.74.67-2.64,1Z" transform="translate(-325.61 -133.39)"/><path class="cls-9" d="M468.11,561.16c.11-.31.21-.87.35-.89,7.19-.7,14.39-1.36,21.58-2Z" transform="translate(-325.61 -133.39)"/><path class="cls-9" d="M465,552.19c.27,3.1-2.57,6.61,1.18,9.28l-3.83,2.25C460.79,558.88,462.34,555.42,465,552.19Z" transform="translate(-325.61 -133.39)"/><path class="cls-21" d="M451.12,604.28l1.23-2.1,4.08,10.31-1.63.59Q453,608.67,451.12,604.28Z" transform="translate(-325.61 -133.39)"/><path class="cls-8" d="M500,641.18c-.32,1.66-.63,3.32-.95,5l-1.82-.12Q498.63,643.61,500,641.18Z" transform="translate(-325.61 -133.39)"/><path class="cls-8" d="M502.28,482l.84,4.43Z" transform="translate(-325.61 -133.39)"/><path class="cls-9" d="M496.14,558.06l4.9.16Z" transform="translate(-325.61 -133.39)"/><path class="cls-14" d="M616.9,636.2l2.08-.83Z" transform="translate(-325.61 -133.39)"/><path class="cls-14" d="M619.12,635.33l2.81-.93Z" transform="translate(-325.61 -133.39)"/><path class="cls-20" d="M572,476.42l1.9-2.12C573.23,475,572.6,475.71,572,476.42Z" transform="translate(-325.61 -133.39)"/><path class="cls-9" d="M480,520l-1,3.27Z" transform="translate(-325.61 -133.39)"/><path class="cls-9" d="M481,516.35a1.24,1.24,0,0,1-.34.82Z" transform="translate(-325.61 -133.39)"/><path class="cls-8" d="M574.79,627.57l-.81-1.34Z" transform="translate(-325.61 -133.39)"/><path class="cls-8" d="M575.83,629.5l-.87-1.28Z" transform="translate(-325.61 -133.39)"/><path class="cls-4" d="M628.1,632.3l.95-.16A6.08,6.08,0,0,1,628.1,632.3Z" transform="translate(-325.61 -133.39)"/><path class="cls-4" d="M626.35,633.06l1.58-.72Z" transform="translate(-325.61 -133.39)"/><path class="cls-14" d="M623.44,634l1.45-.68Z" transform="translate(-325.61 -133.39)"/><path class="cls-8" d="M501.91,634.21c0,.33-.07.66-.11,1a3.55,3.55,0,0,1-.19-.71C501.61,634.4,501.81,634.3,501.91,634.21Z" transform="translate(-325.61 -133.39)"/><path class="cls-14" d="M612,635.09l1.12,1.07Z" transform="translate(-325.61 -133.39)"/><path class="cls-11" d="M503.15,487.18l1,1.24Z" transform="translate(-325.61 -133.39)"/><path class="cls-19" d="M670.48,385.5c-6.91-.56-13.81-1.62-20.72-1.59-28.72.11-55-8.17-79.73-22.23-7.84-4.46-12.69-11.51-15.72-20.85,4.28,2.09,9.05,3.52,12.75,6.37,13.25,10.2,28.26,15.23,44.71,16,19.69.94,39.36.3,58.05-6.73a120.77,120.77,0,0,0,23.87-12.21c7.3-4.83,11.83-12,11.19-21.53-.31-4.66-1.66-8.67-6.55-10.09-6.29-1.82-12,.47-14.62,5.49a27,27,0,0,0-2.1,4.5c-3.27,10.67-11.75,14.69-21.57,15.59-16.94,1.56-34,4.84-50.88-.74-8.35-2.76-16.55-6-25-8.52-11.08-3.28-21.93-8.9-33.82-7.18-9.29,1.35-17.8-.11-26.33-3.18-1-1.8-2-3.61-3.53-6.35,3.09.76,5.25,1.42,7.46,1.8,5.38.92,10.8,1.62,16.17,2.61,1.4.25,2.68,1.2,4,1.83.15.56.31,1.12.46,1.68l10.83-8.83-.69-1.13c-15.29,7.49-29.59,2.51-43.53-3.69-3.49-1.55-5.93-5.47-8.85-8.3l1-.8,7.36,1.42a.45.45,0,0,1-.49.42l.81,1.43c2.6,1,5.15,2.69,7.81,2.92,14,1.16,28.08,2,42.13,2.89,13.57,1.82,26.49.48,38.2-7.48,1.12-.76,4-.88,4.63-.11,7.79,9.54,18.33,12.1,29.86,12.22,13.14.14,26.28.23,39.42.11,2.48,0,4.95-1.15,7.43-1.77l-.17-1.52c-1.44,0-2.88-.06-4.32,0-18.76.9-37.53,2-56.17-1.23-6.77-1.18-10.74-6.32-15.14-11.23l5.93-1.3,0,.26c.27.78.55,1.56.83,2.34l5.5,1.71,1,.17c17.07,1.52,34.09,2.57,49.92-6.12,4-1.85,8.16-3.51,12-5.62,2.12-1.16,3.83-3.09,5.73-4.67a.35.35,0,0,1-.4-.33c1.12-.16,2.66.09,3.28-.55,5.87-6.1,11.58-12.36,21.2-12.55l-.22-1.57c-1.4-.25-2.8-.47-4.2-.75-7.58-1.56-15.48-2.24-22.65-4.9-12.19-4.51-24.39-4.45-36.82-2.56-11,1.68-21.93,3.66-32.89,5.44a44.15,44.15,0,0,1-5.68,0,53.26,53.26,0,0,1,3.63-6.12,112.3,112.3,0,0,1,7.64-8.53,6.93,6.93,0,0,1,3.81-2c14.34-1.46,28.69-2.89,43.05-4.06A80,80,0,0,1,705,249.14a43.35,43.35,0,0,0,4.4,1.23l.57-1.14a9.56,9.56,0,0,0-2.27-1.9,85.45,85.45,0,0,0-42-6c-11,1.23-22.08,2.27-33.13,3.3-2.43.23-4.9,0-7.9,0,2.23-10.23,10.06-16.26,15.26-23.92,1.48-1.33,3-2.58,4.42-4,14.76-15.12,46.71-16.75,62.78-3,12.31,10.52,21.21,23.26,24.72,39.36,1.48,6.81,3.93,13.54,4.41,20.41a119.79,119.79,0,0,1-.81,26.16c-1.89,12.49-5.68,24.47-12.74,35.34-5.69,8.75-10.27,18.22-15.69,27.15a134.14,134.14,0,0,1-10.65,15c-3.61,4.45-8,7.77-14.43,7.24-2.87-.23-5.83.7-8.72,1.11Zm-30.4-63.76c.28-.79.56-1.58.85-2.38l-28.36-8.81c-.25.76-.49,1.51-.73,2.27Z" transform="translate(-325.61 -133.39)"/><path class="cls-19" d="M555.37,215.85c20.29-5.89,41-6.54,61.74-3.83,6.78.88,13.12,5.08,19.66,7.77-2.79,3.9-5.71,7.71-8.31,11.73-2.75,4.24-5.19,8.67-8.34,14L544,238.15c1.64-8.75.41-17.12,9.12-21.36a2.32,2.32,0,0,0,.94-.19Z" transform="translate(-325.61 -133.39)"/><path class="cls-19" d="M618.71,248.72,601,275.28c-27.21-13.43-57.1-17.64-88.11-14.92,6.84-13.81,19.62-22.37,35.93-19.62,11.41,1.92,23,2.67,34.55,3.9,11,1.17,22.11,2.27,33.16,3.45A9.1,9.1,0,0,1,618.71,248.72Z" transform="translate(-325.61 -133.39)"/><path class="cls-7" d="M514.7,298.86c-1.89-1.68-3.89-3.27-5.67-5.07-4-4.06-5.84-8.7-4-14.49,1.81-5.52,6.05-7.31,11.17-7.42,11.45-.24,22.93-.73,34.34-.07,5.81.33,11.61,2.62,17.21,4.6,11.19,3.93,22.49,5.77,34.5,3.44L608.66,292c-8.36,6.48-17,11.76-27.73,12.41-5.3.32-10.63.14-15.94.18-1.34-1.1-3.08-2-4-3.36-4.17-6.72-7.2-14.39-12.34-20.22-8.49-9.63-22.24-7.37-28.18,3.92-1.65,3.15-1.95,7-3.19,10.38-.51,1.38-1.88,2.45-2.85,3.67l-.27.31A.45.45,0,0,0,514.7,298.86Z" transform="translate(-325.61 -133.39)"/><path class="cls-7" d="M614.58,294.48l0-.26c-7.13-5.55-10.54-13.58-7.8-20.06.94-2.23,3.38-4.89,5.57-5.36q18.68-4.08,37.57-7.08c13.79-2.22,27.37-2.23,40.36,4.37,3.42,1.75,7.67,1.88,11.9,2.84l-13,13a.35.35,0,0,0,.4.33c-.55-.09-1.23-.45-1.62-.25-5.41,2.8-10.78,5.67-16.17,8.53-3.37,1.22-3.38-1-3.47-3.3-.24-6-2.42-11.12-7.69-14.24-9-5.37-18.84-6.23-28.79-3.19-9.12,2.79-13.76,10.46-12.7,20,.2,1.77.41,3.53.63,5.43l-2.75-.15Z" transform="translate(-325.61 -133.39)"/><path class="cls-22" d="M514.48,299c1-1.22,2.34-2.29,2.85-3.67,1.24-3.4,1.54-7.23,3.19-10.38,5.94-11.29,19.69-13.55,28.18-3.92,5.14,5.83,8.17,13.5,12.34,20.22.87,1.4,2.61,2.26,4,3.36l0,1.94c-14.05-.93-28.1-1.73-42.13-2.89-2.66-.23-5.21-1.91-7.81-2.92Zm33.38-5.31c-2.67-1.79-4.26-3.69-5.58-3.52a5.29,5.29,0,0,0-3.59,3.61c-.11,1.19,2.1,3.69,3.24,3.66C543.53,297.37,545.09,295.54,547.86,293.66Zm-14.5-4c-2.16-1.24-3.45-2.53-4.71-2.51-.88,0-1.74,1.82-2.61,2.82,1.15.92,2.21,2.36,3.47,2.57C530.38,292.64,531.53,291.06,533.36,289.62Z" transform="translate(-325.61 -133.39)"/><path class="cls-10" d="M596.42,278.76c-5.41-.5-11-.42-16.2-1.64-8.84-2.08-17.37-6.44-26.25-7.2-13.79-1.17-27.77-.09-41.67-.08a24.23,24.23,0,0,1-4.94-1c1.38-1.6,2.54-4.26,4.18-4.61,5.81-1.21,11.88-2.64,17.7-2.15,13.66,1.15,27.34,2.82,40.82,5.33,8,1.49,15.7,4.91,23.49,7.58a14.7,14.7,0,0,1,3.18,2.1Z" transform="translate(-325.61 -133.39)"/><path class="cls-21" d="M518.16,402.35,521.9,408l1.65-6.23L536,400.47l2.86,5.09H525c-.06.58-.11,1.15-.16,1.73,3.11.6,7.55-1.35,8.29,3.8-3.8.27-7.65,1.09-11.37.69-6.89-.76-13.69-2.24-20.53-3.42-.07-.36-.13-.71-.2-1.07,1.44-1.25,2.72-3.29,4.35-3.62C509.55,402.83,513.88,402.74,518.16,402.35Z" transform="translate(-325.61 -133.39)"/><path class="cls-23" d="M572,413.18c-23.51,10.17-47.43,11-71.68,3-2.24-.74-4.15-2.51-6.21-3.8l1.46-1.23c21.48,9.43,43.45,9.5,65.67,3.2,3.77-1.07,7.25-3.16,10.86-4.78C572.07,410.79,572,412,572,413.18Z" transform="translate(-325.61 -133.39)"/><path class="cls-8" d="M501.21,408.36c6.84,1.18,13.64,2.66,20.53,3.42,3.72.4,7.57-.42,11.37-.69l13.8.37c5.55-.46,11.48.59,16-4l3.05.28.15,2.08c-6,1.56-12,4.18-18,4.47-10.54.49-21.15-.67-31.73-.7-5.87,0-11.43-.51-16.41-3.91Z" transform="translate(-325.61 -133.39)"/><path class="cls-4" d="M572,413.18c0-1.19.07-2.39.1-3.59a.94.94,0,0,1,.5-.22l1.29-2.05c.21-4.57-2.66-7.08-6.35-8.49-4.6-1.77-9.46-2.89-14.13-4.49a32.14,32.14,0,0,1-4.9-2.69l3.29-.87.07-.11L575,399.55l-.06-.08c.47,2,.95,4,1.42,6l-.54,4.49-.76,2.47c-1.15,4.19.92,5.82,7.65,5.82.11-1.25.22-2.53.34-3.81,1,1.23,3,2.91,2.66,3.59-.63,1.43-2.45,2.33-3.79,3.44l-8-2.84-1.8-4.14C572.07,414.09,572,413.63,572,413.18Z" transform="translate(-325.61 -133.39)"/><path class="cls-18" d="M541,398.57l10.12-1.91c0,.92,0,1.85,0,2.78H548.2c-.1.41-.19.81-.29,1.22l6.74,2.48a6.54,6.54,0,0,0-1.38,5c-.78-.34-1.78-.48-2.31-1.06a7.64,7.64,0,0,1-1-2.43l-5.58.89Z" transform="translate(-325.61 -133.39)"/><path class="cls-23" d="M501.21,408.36,500,409.7l-5-5.52c1.8-1.53,3.37-3.83,5.44-4.46,5.55-1.67,11.31-2.62,17-3.86.17.52.34,1.05.5,1.57-.91.72-1.82,1.44-2.74,2.15-5.09.86-10.23,1.5-15.25,2.67-2.39.56-3.89,2.24-.83,4.33l1.13.77a7,7,0,0,0,.79-.06C501.08,407.65,501.14,408,501.21,408.36Z" transform="translate(-325.61 -133.39)"/><path class="cls-18" d="M501,407.29a7,7,0,0,1-.79.06l-1.13-.77c-3.06-2.09-1.56-3.77.83-4.33,5-1.17,10.16-1.81,15.25-2.67l3,2.77c-4.28.39-8.61.48-12.8,1.32C503.73,404,502.45,406,501,407.29Z" transform="translate(-325.61 -133.39)"/><path class="cls-23" d="M551.09,399.44c0-.93,0-1.86,0-2.78,4.83,1.45,9.86,2.46,14.44,4.49,5.36,2.36,5.36,5.62.58,8.69l-.15-2.08c-.49-1.42-.62-3.73-1.53-4.09C560.11,402,555.56,400.8,551.09,399.44Z" transform="translate(-325.61 -133.39)"/><path class="cls-12" d="M541,398.57l3.36,7-1.21,3.21-1.36,0L539,406.29a1.67,1.67,0,0,0-.14-.73L536,400.47C535.74,394.78,539.46,399.53,541,398.57Z" transform="translate(-325.61 -133.39)"/><path class="cls-23" d="M534.84,396.62H522.46l-.08-1.09h12.37Z" transform="translate(-325.61 -133.39)"/><path class="cls-23" d="M573.89,407.32l-1.29,2.05Z" transform="translate(-325.61 -133.39)"/><path class="cls-23" d="M495.16,410.57c-.36-.39-.71-.79-1.06-1.18Z" transform="translate(-325.61 -133.39)"/><path class="cls-9" d="M531.72,354.66q.78-2.36,1.57-4.71c2.93-8.73,4.86-9.72,13.71-7.49,1.32,7,2.6,13.72,3.87,20.44L543,360.42c.08-11.57-1.57-16.24-5.46-15.93q1.25,7.92,2.48,15.85a.44.44,0,0,1-.62.36l-1.28.6-8.46,6.43Q530.7,361.21,531.72,354.66Z" transform="translate(-325.61 -133.39)"/><path class="cls-15" d="M540,360.34q-1.24-7.92-2.48-15.85c3.89-.31,5.54,4.36,5.46,15.93Z" transform="translate(-325.61 -133.39)"/><path class="cls-15" d="M538.12,361.3l1.28-.6Z" transform="translate(-325.61 -133.39)"/><path class="cls-15" d="M568.08,388.49l2,2.74c-.6.95-1.45,2.79-1.77,2.7-4-1.09-7.83-2.47-12.73-4.11l-3.72.85-.07.11c-.11-.48-.48-1.12-.3-1.41,2.86-4.39,5.8-8.73,8.72-13.09l-.06.1L562,379.5h0C563.07,383.15,563.51,387.21,568.08,388.49Z" transform="translate(-325.61 -133.39)"/><path class="cls-7" d="M701.81,204v1.64c-16.92-7-33.78-5.84-50.3,1.05-3.8,1.59-7,5-10,7.92-1.85,1.76-3.22,2.4-5.5.94-13.75-8.8-28.92-9.85-44.63-8.17a76.17,76.17,0,0,1-16.06.11,19,19,0,0,1,2.62-1.42c13.25-4.7,26.8-7.54,41-7.42,19.59.16,39.2-.46,58.76.29C685.72,199.25,693.74,202.23,701.81,204Z" transform="translate(-325.61 -133.39)"/><path class="cls-10" d="M670.48,385.5h2.8l9,1.69c-5.93,6.13-21.82,12.35-30,11.82a29.69,29.69,0,0,0-4.39.38v.05l-30-6,.12,0c-7-1.15-8.38-7.5-11.25-11.84,10.75,1.49,21.61,3.63,32.55,4.33C649.69,386.54,660.1,385.69,670.48,385.5Z" transform="translate(-325.61 -133.39)"/><path class="cls-24" d="M651.89,402.1l2.05.14.71,2.15a.77.77,0,0,0-.75.33L622,424l-8.33-28.78,24.22,4.94,2,.24Z" transform="translate(-325.61 -133.39)"/><path class="cls-14" d="M651.89,402.1l-12-1.7,8-.95v-.05Z" transform="translate(-325.61 -133.39)"/><path class="cls-14" d="M654.65,404.39l-.71-2.15,5.16,1.44h0c-.2.41-.39.82-.59,1.24l-.22.21Z" transform="translate(-325.61 -133.39)"/><path class="cls-3" d="M555.37,215.85l-1.33.75Z" transform="translate(-325.61 -133.39)"/><path class="cls-4" d="M746.78,229l0-.07,1,.86Z" transform="translate(-325.61 -133.39)"/><path class="cls-8" d="M544,340.57l-7.11-1.22,7.13.32C544,340,544,340.27,544,340.57Z" transform="translate(-325.61 -133.39)"/><path class="cls-13" d="M544,340.57c0-.3,0-.6,0-.9l4-.08c0,.32,0,.64,0,1Z" transform="translate(-325.61 -133.39)"/><path class="cls-8" d="M554.53,339.41l-4,0Z" transform="translate(-325.61 -133.39)"/><path class="cls-8" d="M548,340.55c0-.32,0-.64,0-1l2-.22c0,.41-.05.82-.08,1.24Z" transform="translate(-325.61 -133.39)"/><path class="cls-8" d="M523.21,331.33l-1.17.27v-1.1Z" transform="translate(-325.61 -133.39)"/><path class="cls-25" d="M618.53,425.45c-.49,4.07-2.35,6.24-10.27,11.8a36,36,0,0,1-3.11-3.67c-3-4.55-5.58-9.11-12.27-8.94-2.49.07-3.31-2.3-4-5.35-1.19-5.44-4.37-10.48-7-15.55-1.62-3.16-3.72-6.07-5.6-9.09-6.74-10.54-13.44-21.1-20.26-31.58-3.56-5.47-5.27-11.27-4.13-17.78,4,5,7.07,11.28,12.1,14.73a130.74,130.74,0,0,0,28,14.74c8.44,3.15,12.46,9.14,16,16.31.58,1.17,1.1,2.37,1.65,3.56Z" transform="translate(-325.61 -133.39)"/><path class="cls-14" d="M618.53,425.45l-8.85-30.82,8.38-1.25-.12.05c4.87,1.36,9.76,2.63,14.58,4.14a39.62,39.62,0,0,1,5.38,2.59l-24.22-4.94L622,424l31.89-19.28,1.67,2.11L628,424.63c-3.17-1.91-2.69.68-2.93,2.38l-2,1.77Z" transform="translate(-325.61 -133.39)"/><path class="cls-9" d="M551.87,390.67l3.72-.85c4.9,1.64,8.78,3,12.73,4.11.32.09,1.17-1.75,1.77-2.7l4.91,8.32Z" transform="translate(-325.61 -133.39)"/><path class="cls-9" d="M568.08,388.49c-4.57-1.28-5-5.34-6.05-9Z" transform="translate(-325.61 -133.39)"/><path class="cls-9" d="M576.36,405.52c-.47-2-1-4-1.42-6,.28.16.56.31.85.45q1.4,2.81,2.8,5.61Z" transform="translate(-325.61 -133.39)"/><path class="cls-9" d="M562,379.5l-1.87-3.12Z" transform="translate(-325.61 -133.39)"/><path class="cls-6" d="M725.44,526a15.27,15.27,0,0,1-15.21,15.26A15.11,15.11,0,0,1,695.06,526,14.69,14.69,0,0,1,710,511.17C718.69,511.12,725.33,517.45,725.44,526Z" transform="translate(-325.61 -133.39)"/><path class="cls-6" d="M631.81,577.18a15,15,0,1,1,14.83,15A14.91,14.91,0,0,1,631.81,577.18Z" transform="translate(-325.61 -133.39)"/><path class="cls-6" d="M789.78,564a14.74,14.74,0,0,1-14.89,14.84A14.94,14.94,0,1,1,789.78,564Z" transform="translate(-325.61 -133.39)"/><path class="cls-6" d="M787.43,502.31a13.87,13.87,0,0,1-14.28-14.12,14.12,14.12,0,0,1,14.26-14.27,14,14,0,0,1,14.19,14.26C801.58,496.42,795.69,502.29,787.43,502.31Z" transform="translate(-325.61 -133.39)"/><path class="cls-6" d="M659.72,494.52a14.09,14.09,0,0,1-14,13.84,13.6,13.6,0,0,1-13.67-14,13.92,13.92,0,0,1,14.15-13.69C653.47,480.86,659.8,487.34,659.72,494.52Z" transform="translate(-325.61 -133.39)"/><path class="cls-6" d="M765.75,320.48a13.73,13.73,0,0,1,13.82-13.93,14.21,14.21,0,0,1,14,14c0,7.15-6.42,13.61-13.71,13.75A14,14,0,0,1,765.75,320.48Z" transform="translate(-325.61 -133.39)"/><path class="cls-6" d="M719.8,457.71a13.68,13.68,0,0,1-13.66,13.6c-7.42.05-13.94-6.62-13.85-14.17.09-7.21,6.62-13.58,13.91-13.57C713.93,443.59,719.86,449.74,719.8,457.71Z" transform="translate(-325.61 -133.39)"/><path class="cls-6" d="M801.19,383.33a13.18,13.18,0,0,1,13.53,13.56,13.72,13.72,0,1,1-27.43-.29A13.49,13.49,0,0,1,801.19,383.33Z" transform="translate(-325.61 -133.39)"/><path class="cls-6" d="M737.27,402.14a13.67,13.67,0,1,1,13.85,13.92A13.8,13.8,0,0,1,737.27,402.14Z" transform="translate(-325.61 -133.39)"/><path class="cls-11" d="M655.57,406.83l-1.67-2.11a.77.77,0,0,1,.75-.33l3.65.73Z" transform="translate(-325.61 -133.39)"/><path class="cls-20" d="M625.05,427c.24-1.7-.24-4.29,2.93-2.38Z" transform="translate(-325.61 -133.39)"/><path class="cls-11" d="M658.52,404.91c.2-.42.39-.83.59-1.24C658.91,404.08,658.72,404.49,658.52,404.91Z" transform="translate(-325.61 -133.39)"/><path class="cls-23" d="M572.11,414.54l1.8,4.14Z" transform="translate(-325.61 -133.39)"/><path class="cls-6" d="M490.19,524.2c-5.43-5.85-7.88-12.35-3.74-19.91,4.74-8.64,14.11-10.54,22-4.62,1.18.89,2.29,1.89,3.43,2.84v0c.29.75.58,1.5.88,2.25,2.55,6.31,2.19,12.18-2.51,17.48-3.65,4.12-10.58,5.88-16.18,4h-.4l-3.52-2Z" transform="translate(-325.61 -133.39)"/><path class="cls-6" d="M509.18,531.61c3.3-1.43,6.49-3.61,9.93-4.13,8-1.22,14.39,3.58,16.32,11.34,1.77,7.11-2.11,14.37-9.26,17.31-.75.31-1.51.59-2.27.89l-1.88.32-7-1-2.77-1.13-1.19-1-.66-1-1.34-1,.07,0c-.64-1-1.29-2.08-1.94-3.12l.07,0-1.47-5.78c0-1,0-2.08,0-3.13.8-2.26,1.59-4.53,2.39-6.8l-.1,0,.82-1.14A1,1,0,0,0,509.18,531.61Z" transform="translate(-325.61 -133.39)"/><path class="cls-9" d="M494.08,526.2c5.6,1.9,12.53.14,16.18-4,4.7-5.3,5.06-11.17,2.51-17.48-.3-.75-.59-1.5-.88-2.25,1.21.73,2.94,1.16,3.55,2.24,3.92,6.79-.78,19.48-8.09,22.32-2.11.82-4.19,1.72-6.35,2.41C497.75,530.49,494.74,530.78,494.08,526.2Z" transform="translate(-325.61 -133.39)"/><path class="cls-9" d="M508.24,533.47c-.8,2.27-1.59,4.54-2.39,6.8C505,537.41,503.51,534.35,508.24,533.47Z" transform="translate(-325.61 -133.39)"/><path class="cls-9" d="M505.81,543.4l1.47,5.78C503.33,548.14,505.28,545.59,505.81,543.4Z" transform="translate(-325.61 -133.39)"/><path class="cls-9" d="M490.16,524.23l3.52,2Z" transform="translate(-325.61 -133.39)"/><path class="cls-9" d="M507.21,549.14c.65,1,1.3,2.08,1.94,3.12C508.51,551.22,507.86,550.18,507.21,549.14Z" transform="translate(-325.61 -133.39)"/><path class="cls-9" d="M509.08,552.22l1.34,1Z" transform="translate(-325.61 -133.39)"/><path class="cls-9" d="M509,532.38l-.82,1.14Z" transform="translate(-325.61 -133.39)"/><path class="cls-9" d="M511.08,554.2l1.19,1Z" transform="translate(-325.61 -133.39)"/><path class="cls-10" d="M600.37,431.74l6.47,8.09c-8.79,9.22-17.42,18.35-26.19,27.35-.69.71-3,1.09-3.41.61a43.47,43.47,0,0,1-5.14-7.09c-.13-.23,1.47-1.95,2.52-2.37,3.71-1.5,4.06-3.49,1.41-6.34-2.13-2.29-2.69-4.13.55-6.4,1.41-1,2.2-4,2-6-.67-6.35-.35-6.79,5.84-4.93,2.22.66,4.46,1.29,6.7,1.89C596.45,438,598.28,437.1,600.37,431.74Z" transform="translate(-325.61 -133.39)"/><path class="cls-9" d="M575.28,455.23c-4.53,1.37-6.64,3.32-5.76,7.88.19,1-3.44,2.74-5.31,4.14L562.59,466c3.24-11.65,6.49-23.3,9.81-35.26l3.91,1.2c-.27,3.91.91,9.26-1.08,11C570.21,447.36,571.52,450.72,575.28,455.23Z" transform="translate(-325.61 -133.39)"/><path class="cls-15" d="M576.36,405.52h2.23q2.22,4.49,4.46,9c-.12,1.28-.23,2.56-.34,3.81-6.73,0-8.8-1.63-7.65-5.82l.76-2.47Z" transform="translate(-325.61 -133.39)"/><path class="cls-15" d="M522,557.34l1.88-.32c3.39,2.79,5.29-.81,7.7-1.91,1.51-.69,2.75-2,4.88-3.58.19,4.14.78,7.22.35,10.14-.58,3.91-4.13,2.71-6.49,2.5a18.56,18.56,0,0,1-7.4-2.3C522.06,561.35,522.29,558.91,522,557.34Z" transform="translate(-325.61 -133.39)"/><path class="cls-22" d="M617.05,295.08l2.75.15c-.22-1.9-.43-3.66-.63-5.43-1.06-9.5,3.58-17.17,12.7-20,10-3,19.74-2.18,28.79,3.19,5.27,3.12,7.45,8.25,7.69,14.24.09,2.28.1,4.52,3.47,3.3,0,.67,0,1.34,0,2-15.83,8.69-32.85,7.64-49.92,6.12l-1-.17-5.5-1.71Zm22.85-15.4c-2.3,3.29-4.68,5.22-4.68,7.16,0,1.6,2.61,4.22,4.42,4.57a4.29,4.29,0,0,0,5.23-5C644.62,284.48,642.34,282.84,639.9,279.68Zm17.5,5.71c2-2.74,4.08-4.32,4-5.76s-2.29-2.84-3.56-4.25c-1.39,1.29-3.68,2.46-3.9,3.92S655.63,282.48,657.4,285.39Zm-8.17-11.45c-1.71-1.31-3-2.95-3.79-2.75-1.26.31-2.2,1.88-3.27,2.92,1.12.95,2.15,2.45,3.41,2.67C646.42,276.94,647.59,275.29,649.23,273.94Z" transform="translate(-325.61 -133.39)"/><path class="cls-3" d="M640.08,321.74l-28.24-8.92c.24-.76.48-1.51.73-2.27l28.36,8.81C640.64,320.16,640.36,321,640.08,321.74Z" transform="translate(-325.61 -133.39)"/><path class="cls-3" d="M671.83,292.58c0-.67,0-1.34,0-2,5.39-2.86,10.76-5.73,16.17-8.53.39-.2,1.07.16,1.62.25-1.9,1.58-3.61,3.51-5.73,4.67C680,289.07,675.86,290.73,671.83,292.58Z" transform="translate(-325.61 -133.39)"/><path class="cls-3" d="M617.05,295.08l-1.64,1.74c-.28-.78-.56-1.56-.83-2.34Z" transform="translate(-325.61 -133.39)"/><path class="cls-3" d="M620.91,298.53l1,.17Z" transform="translate(-325.61 -133.39)"/><path class="cls-3" d="M514.48,299l.54,1.74-.81-1.43Z" transform="translate(-325.61 -133.39)"/><path class="cls-7" d="M547.86,293.66c-2.77,1.88-4.33,3.71-5.93,3.75-1.14,0-3.35-2.47-3.24-3.66a5.29,5.29,0,0,1,3.59-3.61C543.6,290,545.19,291.87,547.86,293.66Z" transform="translate(-325.61 -133.39)"/><path class="cls-7" d="M533.36,289.62c-1.83,1.44-3,3-3.85,2.88-1.26-.21-2.32-1.65-3.47-2.57.87-1,1.73-2.8,2.61-2.82C529.91,287.09,531.2,288.38,533.36,289.62Z" transform="translate(-325.61 -133.39)"/><path class="cls-18" d="M538.88,405.56a1.67,1.67,0,0,1,.14.73l-3.83,1.63.42,1.66,6.16-.81,1.36,0,3.78,2.72-13.8-.37c-.74-5.15-5.18-3.2-8.29-3.8,0-.58.1-1.15.16-1.73Z" transform="translate(-325.61 -133.39)"/><path class="cls-21" d="M546.91,411.46l-3.78-2.72,1.21-3.21,5.58-.89a7.64,7.64,0,0,0,1,2.43c.53.58,1.53.72,2.31,1.06a12.6,12.6,0,0,1,.17-2.62,11.76,11.76,0,0,1,1.22-2.36l8.26,4.33C558.39,412.05,552.46,411,546.91,411.46Z" transform="translate(-325.61 -133.39)"/><path class="cls-5" d="M562.92,407.48l-8.26-4.33-6.75-2.49c.1-.41.19-.81.29-1.22h2.89c4.47,1.36,9,2.53,13.35,4.23.91.36,1,2.67,1.53,4.09Z" transform="translate(-325.61 -133.39)"/><path class="cls-9" d="M575.82,410l-.76,2.47Z" transform="translate(-325.61 -133.39)"/><path class="cls-21" d="M499.09,406.58l1.13.77Z" transform="translate(-325.61 -133.39)"/><path class="cls-21" d="M541.77,408.77l-6.16.81-.42-1.66,3.83-1.63Z" transform="translate(-325.61 -133.39)"/><path class="cls-11" d="M637.9,400.16a39.62,39.62,0,0,0-5.38-2.59c-4.82-1.51-9.71-2.78-14.58-4.14l30,6-8,.95Z" transform="translate(-325.61 -133.39)"/><path class="cls-7" d="M639.9,279.68c2.44,3.16,4.72,4.8,5,6.72a4.29,4.29,0,0,1-5.23,5c-1.81-.35-4.43-3-4.42-4.57C635.22,284.9,637.6,283,639.9,279.68Z" transform="translate(-325.61 -133.39)"/><path class="cls-7" d="M657.4,285.39c-1.77-2.91-3.68-4.66-3.47-6.09s2.51-2.63,3.9-3.92c1.27,1.41,3.46,2.77,3.56,4.25S659.42,282.65,657.4,285.39Z" transform="translate(-325.61 -133.39)"/><path class="cls-7" d="M649.23,273.94c-1.64,1.35-2.81,3-3.65,2.84-1.26-.22-2.29-1.72-3.41-2.67,1.07-1,2-2.61,3.27-2.92C646.25,271,647.52,272.63,649.23,273.94Z" transform="translate(-325.61 -133.39)"/></g></svg>